<?xml version="1.0" encoding="UTF-8" standalone="no"?>
<!-- Generator: Adobe Illustrator 23.0.1, SVG Export Plug-In . SVG Version: 6.00 Build 0)  -->

<svg
   version="1.1"
   id="Layer_1"
   x="0px"
   y="0px"
   viewBox="0 0 200 200"
   xml:space="preserve"
   sodipodi:docname="Министерство науки и высшего образования российской федерации.svg"
   width="200"
   height="200"
   inkscape:version="1.1.1 (3bf5ae0d25, 2021-09-20)"
   xmlns:inkscape="http://www.inkscape.org/namespaces/inkscape"
   xmlns:sodipodi="http://sodipodi.sourceforge.net/DTD/sodipodi-0.dtd"
   xmlns="http://www.w3.org/2000/svg"
   xmlns:svg="http://www.w3.org/2000/svg"><defs
   id="defs287" /><sodipodi:namedview
   id="namedview285"
   pagecolor="#ffffff"
   bordercolor="#999999"
   borderopacity="1"
   inkscape:pageshadow="0"
   inkscape:pageopacity="0"
   inkscape:pagecheckerboard="0"
   showgrid="false"
   inkscape:zoom="2.56"
   inkscape:cx="170.3125"
   inkscape:cy="81.445313"
   inkscape:window-width="1920"
   inkscape:window-height="1017"
   inkscape:window-x="-8"
   inkscape:window-y="-8"
   inkscape:window-maximized="1"
   inkscape:current-layer="g282"
   fit-margin-left="0"
   scale-x="1" />
<style
   type="text/css"
   id="style2">
	.st0{fill:#58595B;}
	.st1{fill:#13377D;}
</style>
<g
   id="g282">
	<g
   id="g114">
		
		
		
		
		
		
		
		
		
		
		
		
		
		
		
		
		
		
		
		
		
		
		
		
		
		
		
		
		
		
		
		
		
		
		
		
		
		
		
		
		
		
		
		
		
		
		
		
		
		
		
		
		
		
		
	</g>
	<g
   id="g280"
   transform="matrix(2.0782878,0,0,2.0782878,9.9701839,0)">
		<path
   class="st1"
   d="m 67.5,71.6 c -0.3,0 -0.5,0.2 -0.5,0.5 0,0.3 0.2,0.5 0.5,0.5 0.3,0 0.5,-0.2 0.5,-0.5 0,-0.2 -0.2,-0.5 -0.5,-0.5 z"
   id="path116" />
		<path
   class="st1"
   d="m 69.2,76.5 v 0 c 0,0.3 0.2,0.5 0.5,0.5 0.3,0 0.5,-0.2 0.5,-0.5 0,-0.3 -0.2,-0.5 -0.5,-0.5 -0.3,0 -0.5,0.2 -0.5,0.5 z"
   id="path118" />
		<path
   class="st1"
   d="m 67.5,76 v 0 C 67.2,76 67,76.2 67,76.5 67,76.8 67.2,77 67.5,77 67.8,77 68,76.8 68,76.5 68,76.2 67.8,76 67.5,76 Z"
   id="path120" />
		<path
   class="st1"
   d="m 71.4,76.5 v 0 c 0,0.3 0.2,0.5 0.5,0.5 0.3,0 0.5,-0.2 0.5,-0.5 0,-0.3 -0.2,-0.5 -0.5,-0.5 -0.3,0 -0.5,0.2 -0.5,0.5 z"
   id="path122" />
		<polygon
   class="st1"
   points="65.8,69.3 66.9,69.1 66.8,70.4 68.2,70.4 68.1,69.1 69.2,69.3 69.2,67.9 68.1,68 68.2,66.7 66.8,66.7 66.9,68 65.8,67.9 "
   id="polygon124" />
		<path
   class="st1"
   d="m 68.4,71.2 v 4.5 h 4.3 c -0.3,-2.3 -2.1,-4.1 -4.3,-4.5 z"
   id="path126" />
		<path
   class="st1"
   d="m 67.5,73.8 c -0.3,0 -0.5,0.2 -0.5,0.5 0,0.3 0.2,0.5 0.5,0.5 0.3,0 0.5,-0.2 0.5,-0.5 0,-0.3 -0.2,-0.5 -0.5,-0.5 z"
   id="path128" />
		<path
   class="st1"
   d="m 69.3,79.5 c -0.1,0 -0.5,1.1 -0.1,1.9 0.2,0.4 0.6,0.6 1,0.5 0.4,-0.1 0.5,-0.5 0.5,-0.7 -0.1,-0.9 -0.8,-1.7 -1.4,-1.7 z"
   id="path130" />
		<path
   class="st1"
   d="m 65.7,79.5 c -0.6,0 -1.3,0.8 -1.3,1.7 0,0.3 0.1,0.6 0.5,0.7 0.4,0.1 0.8,-0.1 1,-0.5 0.2,-0.8 -0.1,-1.9 -0.2,-1.9 z"
   id="path132" />
		<path
   class="st1"
   d="m 67.5,78.9 c -0.4,0 -1.6,2.3 -0.7,3.4 0.2,0.2 0.4,0.3 0.7,0.3 0.3,0 0.6,-0.1 0.7,-0.3 0.8,-1.1 -0.3,-3.4 -0.7,-3.4 z"
   id="path134" />
		<path
   class="st1"
   d="m 62.2,76.5 v 0 c 0,-0.5 0.1,-0.9 0.1,-0.9 h 4.3 V 75.2 72 72 71.1 c -2.1,0.4 -3.8,2 -4.3,4.1 -0.1,0.2 -0.5,0.3 -0.8,0.2 -1.6,-0.2 -4.8,-0.8 -4.8,-1.5 0,-1 0.7,-1.4 1.3,-1.4 0.9,0 1.9,0.5 2.7,-0.7 -2.9,0.1 -0.7,-4.1 -3.1,-4.9 0.1,1.1 0,3 -0.4,4 0,0 -0.9,-0.9 -1.8,-1.3 0.1,0.8 -0.1,2.4 -0.4,3.2 0,0 -1,-1 -2.1,-1.3 1,1.4 1,3.5 0.7,4.7 -0.1,0.4 0.2,0.8 0.9,0.8 1.2,-0.1 5.2,0.1 6.9,0.8 0.5,0.2 1,0.5 1.2,0.9 0.2,0.5 0.6,1.3 1.2,1.7 0.3,-0.9 1.3,-1.9 2,-1.8 0.2,0 0.4,0.4 0.5,0.7 0.1,-0.3 0.6,-1.2 1.1,-1.2 0.5,0 1,0.7 1.2,1.3 0.1,-0.4 0.3,-0.8 0.5,-0.8 0.7,0 1.6,0.6 1.9,1.7 0.3,-0.3 1.5,-1.9 1.6,-3 H 62.2 c 0,0.1 0,-0.3 0,-0.8 z"
   id="path136" />
		<path
   class="st1"
   d="m 64.8,76.5 v 0 c 0,0.3 0.2,0.5 0.5,0.5 0.3,0 0.5,-0.2 0.5,-0.5 0,-0.3 -0.2,-0.5 -0.5,-0.5 -0.3,0 -0.5,0.2 -0.5,0.5 z"
   id="path138" />
		<path
   class="st1"
   d="m 62.7,76.5 v 0 c 0,0.3 0.2,0.5 0.5,0.5 0.3,0 0.5,-0.2 0.5,-0.5 0,-0.3 -0.2,-0.5 -0.5,-0.5 -0.3,0 -0.5,0.2 -0.5,0.5 z"
   id="path140" />
		<path
   class="st1"
   d="m 21.3,78.7 c -0.2,0.2 -0.6,1.3 -0.4,2 0.1,0.3 0.2,0.4 0.5,0.4 0.3,0 0.4,-0.2 0.5,-0.5 0.1,-0.7 -0.4,-1.8 -0.6,-1.9 z"
   id="path142" />
		<path
   class="st1"
   d="m 25,81.8 v 0 c -0.2,0.3 -0.5,0.4 -0.6,0.5 0.1,0.1 0.4,0.3 0.7,0.3 0.2,0 0.4,-0.1 0.5,-0.2 0.3,-0.6 0,-1.1 -0.1,-1.3 -0.1,0.2 -0.2,0.5 -0.5,0.7 z"
   id="path144" />
		<path
   class="st1"
   d="m 23.6,80.4 v 0 C 24,80 24.1,79.7 24,79.5 c -0.1,-0.3 -1,-1.2 -2,-2.3 0,0.2 -0.1,0.4 -0.1,0.6 0.7,1 1,2 0.8,2.9 0.1,0.1 0.1,0.1 0.2,0.1 0.2,0.2 0.5,-0.1 0.7,-0.4 z"
   id="path146" />
		<path
   class="st1"
   d="m 25,80.5 v 0 c 0,-0.2 0,-0.3 -0.1,-0.4 0,0 -0.1,0 -0.1,0 -0.1,0 -0.2,0.2 -0.3,0.3 -0.1,0.1 -0.2,0.3 -0.4,0.5 -0.2,0.2 -0.3,0.3 -0.5,0.5 -0.2,0.1 -0.3,0.3 -0.3,0.4 0,0 0,0 0,0.1 0.1,0.1 0.1,0.1 0.2,0.1 0.1,0 0.4,-0.1 0.9,-0.6 0.5,-0.5 0.6,-0.7 0.6,-0.9 z"
   id="path148" />
		<path
   class="st1"
   d="m 18.4,75.2 v 0 c 0,0 -0.1,0.1 -0.2,0.3 0.2,0 0.5,0 0.7,0.1 0,-0.2 0,-0.5 0,-0.7 -0.2,0 -0.4,0.2 -0.5,0.3 z"
   id="path150" />
		<path
   class="st1"
   d="m 21.1,75.5 v 0 c 0,0 2.1,1.8 2.8,2.5 0.2,0.2 0.4,0.2 0.6,0.1 0.1,-0.1 0.3,-0.1 0.5,-0.2 2.1,-0.7 5.5,-0.8 6.7,-0.8 0.8,0 1,-0.4 0.9,-0.8 C 32.4,75.1 32.3,73 33.3,71.6 32.2,72 31.2,72.9 31.2,72.9 30.8,72.2 30.7,70.5 30.8,69.7 29.8,70 29,71 29,71 c -0.4,-1 -0.5,-2.9 -0.4,-4 -2.4,0.8 -0.2,5.1 -3.1,4.9 0.8,1.2 1.8,0.7 2.7,0.7 0.6,0 1.4,0.4 1.3,1.4 -0.1,0.7 -4,1.5 -5.6,1.5 -1.1,0 -1.9,-0.3 -2.4,-1.1 -0.3,-0.4 -0.5,-0.5 -0.8,-0.5 -0.4,0.1 -0.8,0.4 -0.8,1.4 0,0.6 0.3,2 1,2 0.4,0.1 0.4,-1.1 0.2,-1.8 z"
   id="path152" />
		<path
   class="st1"
   d="m 17.1,74.9 v 0 c 0.1,0 0.2,0 0.3,0 -0.3,0.4 -0.3,0.7 -0.2,0.8 0.2,0.2 0.3,-0.2 0.8,-0.7 0.5,-0.5 0.8,-0.7 0.7,-0.9 -0.1,-0.1 -0.4,-0.1 -0.8,0.2 0,-0.1 0.1,-0.2 0,-0.3 -0.2,-0.5 -0.9,-1.1 -1.4,-1.1 -0.1,0 -0.1,0 -0.2,0 0.2,-0.3 0.1,-0.5 0,-0.7 -0.1,-0.1 -0.2,0 -0.4,0.2 0,-0.1 0,-0.3 -0.1,-0.5 -0.6,-1 -4,-4.2 -4.8,-4.5 -0.5,-0.2 -0.6,0.1 -0.6,0.1 0,0 -0.3,0.2 -0.1,0.6 0.3,0.8 3.6,4.1 4.5,4.7 0.2,0.1 0.4,0.2 0.5,0.1 -0.2,0.2 -0.3,0.2 -0.1,0.4 0.1,0.1 0.3,0.2 0.6,0 0,0.1 0,0.1 0,0.2 0.2,0.4 0.8,1.2 1.3,1.4 z"
   id="path154" />
		<path
   class="st1"
   d="m 19.5,77.3 c 0,-0.3 -0.6,-0.9 -1.4,-0.9 -1.1,0 -1.6,0.7 -1.6,1.1 0,0.7 0.7,0.8 0.9,0.8 0.7,0 2,-0.8 2.1,-1 z"
   id="path156" />
		<path
   class="st1"
   d="m 18.5,79 v 0 c -0.3,0.4 -0.4,0.8 -0.3,1.1 0.1,0.4 0.5,0.6 0.9,0.6 0.4,0 0.8,-0.2 1,-0.5 0.4,-0.7 0.4,-2.2 0.3,-2.3 -0.4,0 -1.4,0.4 -1.9,1.1 z"
   id="path158" />
		<path
   class="st1"
   d="m 8.7,63.4 v 0 c -0.3,-0.3 -1,0.2 -1.4,-0.1 0.2,-1 0.9,0 1.5,-0.6 0.3,-0.3 0.1,-0.7 0,-0.8 -0.3,0.3 -0.7,0.2 -0.8,0 0.7,-1.8 -0.7,-3.7 -2.1,-3.5 0.3,0.4 0.4,1.7 0.2,2 0.5,0.4 0.2,1.3 -0.4,1 C 5.3,61.2 4.6,60.2 5.4,59.6 5.4,59.3 4.9,59.3 4.5,59.9 4.8,58.8 2.7,59.1 2.3,59.4 2.1,59.9 1.8,62 2.9,61.6 c -0.6,0.5 -0.5,1 -0.3,1 0.7,-0.8 1.6,-0.2 1.8,0.2 0.3,0.6 -0.6,1 -1,0.5 -0.3,0.1 -1.6,0.1 -1.9,-0.2 -0.2,1.4 1.8,2.9 3.5,2.1 0.2,0 0.3,0.5 0,0.8 0.1,0.2 0.6,0.3 0.8,0 0.7,-0.7 -0.3,-1.4 0.6,-1.6 0.2,0.4 -0.2,1.1 0.1,1.4 0.5,0.5 1.1,-0.5 1.8,-0.5 0,-0.8 0.9,-1.4 0.4,-1.9 z M 3.5,61.1 v 0 c 0,0 -0.3,-0.2 0.1,-0.7 0.4,-0.4 0.6,-0.1 0.6,-0.1 0,0 0.4,0.8 0.5,1.2 -0.4,0 -1.2,-0.4 -1.2,-0.4 z m 3.2,2.5 v 0 C 6.5,63.6 6,64.1 5.8,63.8 L 4.7,62.7 5.3,62.1 5.9,61.5 7,62.6 c 0.1,0.3 -0.3,0.8 -0.3,1 z"
   id="path160" />
		<path
   class="st1"
   d="m 9,65.4 v 0 c -0.1,0 -0.2,0 -0.3,0.1 -0.1,0.1 -0.1,0.3 -0.1,0.5 0,0.2 0.2,0.4 0.4,0.6 0.1,0.3 0.4,0.4 0.6,0.4 0.1,0 0.2,0 0.3,-0.1 C 10.1,66.7 10,66.1 9.7,65.8 9.5,65.6 9.2,65.4 9,65.4 Z"
   id="path162" />
		<path
   class="st1"
   d="m 5.8,62.1 -0.3,0.3 v 0 l -0.3,0.3 c 0,0 0.6,0.8 1.1,0.5 0.3,-0.5 -0.5,-1.1 -0.5,-1.1 z"
   id="path164" />
		<path
   class="st1"
   d="m 64.2,59.1 c 0,0.2 -0.8,0.6 -1.4,-0.5 -0.6,-0.1 -1.2,-0.3 -1.6,-0.5 0.7,1.4 1.3,2.6 2.3,3.2 1.5,0.9 3.8,0.7 4.5,-0.3 -1.3,-0.7 -2.8,-2.5 -3.6,-4.2 -0.2,0.4 -0.5,1.1 -0.7,1.6 0.1,0.2 0.3,0.5 0.5,0.7 z"
   id="path166" />
		<polygon
   class="st1"
   points=""
   id="polygon168" />
		<path
   class="st1"
   d="m 78.1,37.2 v 0 c 1.6,-0.7 3.9,-2.3 5,-3.3 0.1,0.2 0.5,1.1 -0.7,2.1 -0.9,0.7 -2.7,1.6 -4,2.1 -0.6,0.9 -1.8,1.9 -3.4,3 3.2,-0.5 7,-1.8 8.9,-3.6 3.5,-3.5 1.7,-7.7 1.2,-8.7 -2.3,2.9 -6.7,5.9 -10.8,7.5 1.4,0.2 2.8,0.5 3.8,0.9 z"
   id="path170" />
		<path
   class="st1"
   d="m 75.5,30.8 c 2.1,-1.7 4.3,-5.1 4.7,-6.3 0.5,0.3 0.7,1.3 0.1,2.4 -1.1,1.9 -3.1,3.6 -4.8,5 -0.1,1.2 -0.6,2.7 -1.2,3.8 2.5,-1.7 5.4,-4.2 6.7,-5.9 1.7,-2.2 2.4,-4.4 2.1,-6.6 0.1,-2.5 -1.7,-5 -2.4,-5.6 -0.5,2.7 -3.2,7.3 -5.6,9.9 0.2,0.9 0.4,2.2 0.4,3.3 z"
   id="path172" />
		<path
   class="st1"
   d="m 73.9,46.6 v 0 c 0.5,0.6 1,1.3 1.4,1.9 1.9,0.4 4.2,0.3 4.2,0.3 0,0 -0.1,1 -1.4,1.1 -0.6,0 -2.4,-0.3 -3.1,-0.5 -0.3,0.1 -1.7,0.5 -3.1,0.7 2,0.7 4.9,1.4 6.7,1.4 0.2,0 0.3,0 0.5,0 2.9,-0.3 4.4,-3 4.5,-4.5 -0.9,0.2 -2.4,0.3 -3.9,0.3 -1.4,0 -3.9,-0.1 -5.8,-0.7 z"
   id="path174" />
		<path
   class="st1"
   d="m 86,39 c -2.6,1.4 -7.2,2.8 -10.9,2.8 0.9,0.6 1.8,1.2 2.4,1.8 1.5,-0.1 3.6,-0.6 4.8,-1 0,0.2 0,1.2 -1.4,1.6 -1,0.3 -2.4,0.3 -3.5,0.3 -0.9,0.6 -2.2,1.1 -3.3,1.5 1,0.1 2.3,0.2 3.4,0.2 1.9,0 3.7,-0.2 4.8,-0.6 1,-0.3 4.3,-1.7 3.7,-6.6 z"
   id="path176" />
		<path
   class="st1"
   d="m 72,52.8 v 0 c 1.1,0.5 2.3,0.9 3.3,1 0,0 -0.2,1 -1.7,0.8 -0.9,-0.1 -1.9,-0.8 -2.1,-0.9 -0.7,0.1 -2.1,0.1 -2.6,0 1.7,1.2 4.3,2.6 6.5,2.8 0.1,0 0.2,0 0.3,0 2.3,0 4.1,-2.3 4.6,-3.4 -2.3,0 -6.3,-1 -8.7,-2.3 0.1,0.4 0.3,1.2 0.4,2 z"
   id="path178" />
		<path
   class="st1"
   d="m 68,55.9 c 0.6,0.7 1.6,1.1 1.6,1.1 0,0 -0.3,0.5 -0.9,0.5 -0.2,0 -0.4,-0.1 -0.6,-0.2 -0.4,-0.2 -1,-0.9 -1,-0.9 -0.8,-0.1 -1.5,-0.2 -2.2,-0.4 1.2,1.5 3.2,3.4 5.4,3.9 0.3,0.1 0.6,0.1 1,0.1 1.9,0 3.5,-1.4 3.9,-2.3 -2.2,-0.3 -5.4,-2 -7,-3.6 0,0.6 -0.1,1.3 -0.2,1.8 z"
   id="path180" />
		<path
   class="st1"
   d="m 53.7,80.4 v 0 c 1.1,0 1.8,-0.4 2.3,-1.5 -1.5,0.7 -3.1,0.3 -6.1,-0.6 0,0 -1.1,0.5 -1.8,0.6 1.8,0.5 4.4,1.4 4.8,2.4 0.2,0.8 -0.3,1 -0.3,1 -1,-1.2 -2.2,-1.9 -4.8,-2.7 0,0.5 -0.1,0.8 -0.1,0.8 0,0 -0.5,0.1 -1.7,-0.1 1,0.8 3.4,2.9 3.7,5.1 0.2,1.5 -0.9,1.6 -0.9,1.6 -0.1,-2.3 -1.1,-3.7 -3.3,-6 0,0 -0.4,0.5 -0.8,0.8 0,0 -0.8,-0.1 -1.4,-0.6 0.3,3 0.4,10.2 0.2,11.3 -0.1,0.8 -0.6,1.2 -0.6,1.2 v 0 0 c 0,0 -0.5,-0.3 -0.6,-1.2 -0.2,-1.2 0,-8.4 0.2,-11.3 -0.7,0.4 -1.4,0.6 -1.4,0.6 -0.5,-0.3 -0.8,-0.8 -0.8,-0.8 -2.1,2.3 -3.1,3.8 -3.3,6 0,0 -1,-0.1 -0.9,-1.6 0.3,-2.2 2.7,-4.3 3.7,-5.1 -1.1,0.2 -1.7,0.1 -1.7,0.1 0,0 -0.1,-0.3 -0.1,-0.8 -2.6,0.8 -3.7,1.5 -4.8,2.7 0,0 -0.5,-0.1 -0.3,-1 0.4,-1 3,-1.8 4.8,-2.4 -0.6,-0.1 -1.8,-0.6 -1.8,-0.6 -2.9,0.9 -4.6,1.3 -6.1,0.6 0.4,1.1 1.2,1.5 2.3,1.5 v 0 c -1.4,0.5 -2.7,1.9 -3.1,3.3 1,3.7 4.2,4.8 4.2,4.8 -0.8,-1.8 -0.5,-5.3 4.3,-7.7 -2.9,2.9 -4.1,5.6 -3.3,8.1 0.7,2.3 3.1,3.2 4.8,3.3 -1.2,-3.8 -0.7,-7.3 1.9,-10 -1.1,3 -2.7,12.3 1.8,13.8 0,0 0,0 0,0 0,0 0,0 0,0 4.5,-1.5 2.9,-10.8 1.8,-13.8 2.6,2.8 3.1,6.2 1.9,10 1.8,0 4.1,-1 4.8,-3.3 0.8,-2.5 -0.3,-5.2 -3.3,-8.1 4.8,2.4 5.1,6 4.3,7.7 0,0 3.2,-1.1 4.2,-4.8 0,-1.4 -1.4,-2.7 -2.7,-3.3 z"
   id="path182" />
		<path
   class="st1"
   d="m 22.7,61.3 c 1,-0.6 1.6,-1.8 2.3,-3.2 -0.4,0.2 -1,0.4 -1.6,0.5 -0.6,1.1 -1.4,0.7 -1.4,0.5 0.2,-0.2 0.4,-0.5 0.5,-0.7 -0.2,-0.5 -0.5,-1.2 -0.7,-1.6 -0.8,1.8 -2.4,3.5 -3.6,4.2 0.7,1 3,1.2 4.5,0.3 z"
   id="path184" />
		<polygon
   class="st1"
   points=""
   id="polygon186" />
		<path
   class="st1"
   d="M 11.1,41.1 C 9.4,40 8.3,39 7.7,38.1 6.3,37.6 4.5,36.7 3.7,36 2.5,35 2.9,34.1 3,33.9 4,35 6.3,36.5 8,37.2 v 0 C 9,36.8 10.4,36.5 11.8,36.3 7.7,34.8 3.3,31.7 1,28.9 c -0.5,0.9 -2.4,5.2 1.2,8.7 1.8,1.7 5.7,3 8.9,3.5 z"
   id="path188" />
		<path
   class="st1"
   d="M 11.8,35.6 C 11.2,34.5 10.7,33.1 10.6,31.8 8.9,30.5 7,28.8 5.8,26.8 5.2,25.7 5.4,24.7 5.9,24.4 c 0.4,1.2 2.6,4.6 4.7,6.3 0,-1.1 0.2,-2.4 0.5,-3.3 C 8.7,24.8 5.9,20.2 5.5,17.5 4.8,18.1 3,20.6 3.1,23.1 c -0.3,2.2 0.4,4.4 2.1,6.6 1.2,1.7 4.1,4.3 6.6,5.9 z"
   id="path190" />
		<path
   class="st1"
   d="m 10.8,48.5 c 0.3,-0.6 0.9,-1.3 1.4,-1.9 v 0 c -1.9,0.5 -4.4,0.6 -5.7,0.6 -1.6,0 -3.1,-0.1 -3.9,-0.3 0.1,1.6 1.6,4.3 4.5,4.5 0.2,0 0.3,0 0.5,0 1.8,0 4.7,-0.7 6.7,-1.4 C 12.9,49.8 11.5,49.5 11.2,49.3 10.4,49.7 8.6,50 8,49.9 6.7,49.8 6.6,48.8 6.6,48.8 c 0,0 2.3,0.1 4.2,-0.3 z"
   id="path192" />
		<path
   class="st1"
   d="m 3.8,45.7 c 1.1,0.4 2.8,0.6 4.8,0.6 1.2,0 2.4,-0.1 3.4,-0.2 C 10.9,45.7 9.6,45.2 8.7,44.6 7.6,44.6 6.1,44.5 5.2,44.3 3.8,43.9 3.8,42.9 3.8,42.7 c 1.2,0.5 3.3,1 4.8,1 0.6,-0.5 1.4,-1.2 2.4,-1.8 -3.6,0 -8.3,-1.4 -10.9,-2.8 -0.6,4.8 2.7,6.2 3.7,6.6 z"
   id="path194" />
		<path
   class="st1"
   d="m 10.5,56.4 c 0.1,0 0.2,0 0.3,0 2.2,-0.2 4.8,-1.6 6.5,-2.8 -0.5,0.1 -2,0.1 -2.6,0 -0.2,0.2 -1.3,0.8 -2.1,0.9 -1.6,0.2 -1.7,-0.8 -1.7,-0.8 1,-0.1 2.2,-0.5 3.3,-1 v 0 c 0.1,-0.8 0.3,-1.6 0.5,-2.1 C 12.2,52 8.2,53 5.9,53 c 0.5,1.1 2.3,3.4 4.6,3.4 z"
   id="path196" />
		<path
   class="st1"
   d="m 14.8,60 c 0.3,0 0.7,0 1,-0.1 2.1,-0.5 4.2,-2.4 5.4,-3.9 -0.7,0.2 -1.4,0.4 -2.2,0.4 0,0 -0.5,0.6 -1,0.9 -0.2,0.1 -0.4,0.2 -0.6,0.2 -0.6,0 -0.9,-0.5 -0.9,-0.5 0,0 1,-0.5 1.6,-1.1 -0.1,-0.5 -0.2,-1.2 -0.2,-1.8 -1.7,1.7 -4.8,3.3 -7,3.6 0.4,0.9 1.9,2.3 3.9,2.3 z"
   id="path198" />
		<path
   class="st1"
   d="m 42.2,5.3 v 0 c 0,0.5 0.4,0.8 0.8,0.8 0.4,0 0.8,-0.4 0.8,-0.8 C 43.8,4.8 43.4,4.5 43,4.5 42.6,4.4 42.2,4.8 42.2,5.3 Z"
   id="path200" />
		<polygon
   class="st1"
   points="43.5,2.1 44.7,2.3 44.7,1.2 43.5,1.3 43.6,0 42.5,0 42.6,1.3 41.4,1.2 41.4,2.3 42.6,2.1 42.5,3.5 43.6,3.5 "
   id="polygon202" />
		<path
   class="st1"
   d="m 38.6,16.7 v 0 c 0.1,0 0.3,0.1 0.4,0.1 h 8 c 0.2,0 0.3,0 0.4,-0.1 0.3,-0.1 0.4,-0.3 0.5,-0.6 h -9.8 c 0.1,0.4 0.3,0.5 0.5,0.6 z"
   id="path204" />
		<path
   class="st1"
   d="m 47.4,15.5 c 0.1,0 0.1,-0.1 0.1,-0.1 v -0.6 c 0,-0.1 -0.1,-0.1 -0.1,-0.1 h -8.7 c -0.1,0 -0.1,0.1 -0.1,0.1 v 0.6 c 0,0.1 0.1,0.1 0.1,0.1 z"
   id="path206" />
		<path
   class="st1"
   d="m 48.3,14 c 0.2,-0.3 1.3,-2.4 1.3,-4.6 0,-2 -2.5,-3.1 -3.9,-3.1 -0.2,2.8 -1.3,7.2 -2.7,7.2 -1.3,0 -2.5,-4.4 -2.7,-7.2 -1.5,0 -3.9,1.1 -3.9,3.1 0,2.2 1.1,4.4 1.3,4.6 z"
   id="path208" />
		<path
   class="st1"
   d="m 43,12.1 c 0.7,0 1.5,-2.1 1.8,-4.2 0,-0.4 -0.7,-1 -1.8,-1.1 -1.1,0 -1.8,0.6 -1.8,1.1 0.3,1.9 1.2,4.2 1.8,4.2 z"
   id="path210" />
		<polygon
   class="st1"
   points=""
   id="polygon212" />
		<path
   class="st1"
   d="m 55.7,44.9 c 0,-0.3 -0.2,-0.5 -0.5,-0.5 H 30.9 c -0.3,0 -0.5,0.2 -0.5,0.5 v 16.7 0.1 0.1 c 0,0 0,0 0,0 0,0 0,0.9 0.4,1.9 0.5,1.2 2.6,3.2 5.2,4.6 3.7,1.9 5.9,3.4 7,4.3 1.1,-0.9 3.3,-2.4 7,-4.3 2.7,-1.4 4.7,-3.4 5.2,-4.6 0.5,-1.1 0.4,-1.9 0.4,-1.9 z M 47.5,51 v 0.1 c 0.3,1.2 0.6,2.5 0.7,3.7 1,0.8 1.9,1.6 2.7,2.4 1.5,-1.7 2.3,-3.3 2.3,-4.6 0,0 0,0 0,0 -0.7,0 -1.3,-0.6 -1.3,-1.3 0,-0.3 0.1,-0.5 0.2,-0.7 -0.7,-0.3 -1.5,-0.4 -2.2,-0.4 -0.6,0 -1.2,0.1 -1.9,0.2 0,0 -0.1,0 -0.1,0 l -0.2,0.1 0.1,-0.1 c 0.1,-0.2 0.1,-0.3 0.2,-0.5 v 0 0 c 2,-0.4 3.6,-0.2 4.6,0.4 0.2,-0.1 0.4,-0.2 0.6,-0.2 0.7,0 1.3,0.6 1.3,1.3 0,0.5 -0.3,0.9 -0.7,1.1 0,1.4 -0.8,3.2 -2.5,5.2 0.1,0.1 0.2,0.2 0.3,0.3 0.1,0.1 0.1,0.1 0.2,0.2 v 0.1 0 c -0.1,0.1 -0.2,0.2 -0.3,0.3 v 0 h -0.1 c 0,0 0,0 -0.1,0 v 0 c -0.1,-0.1 -0.1,-0.1 -0.1,-0.2 -0.1,-0.1 -0.1,-0.2 -0.2,-0.3 -0.2,0.2 -0.4,0.4 -0.6,0.6 L 50.2,59 c -0.3,0.2 -0.6,0.3 -0.8,0.2 h -0.1 l 0.1,-0.1 c 0.5,-0.4 0.9,-0.9 1.3,-1.2 -0.6,-0.7 -1.4,-1.4 -2.2,-2.1 0.1,0.7 0.1,1.4 0.1,2.1 0,0.6 0,1.3 -0.1,2 v 0 0 c -0.1,0.1 -0.3,0.2 -0.4,0.3 L 48,60.3 v -0.1 c 0.1,-0.8 0.1,-1.6 0.1,-2.3 0,-0.2 0,-0.5 0,-0.7 V 57 57 c 0,-0.5 -0.1,-1.9 -0.2,-2.8 0,0 0,0 0,0 v 0 0 c -0.1,-0.8 -0.3,-1.6 -0.5,-2.4 v -0.1 0 c 0,0 0,0 0,0 v 0 c 0.1,-0.1 0.2,-0.2 0.3,-0.3 z m -8.2,-1.8 c 1,-2.4 2.4,-3.7 3.8,-3.7 1.4,0 2.8,1.3 3.8,3.7 v 0.1 h -0.1 c -0.1,0 -0.2,0.1 -0.4,0.2 h -0.1 v -0.1 c -0.9,-2.1 -2.1,-3.3 -3.3,-3.3 -1.2,0 -2.4,1.2 -3.3,3.3 v 0.1 h -0.1 c -0.1,-0.2 -0.3,-0.2 -0.3,-0.3 z m -0.4,0.6 c 0.3,0.2 1.2,0.7 2.2,0.4 0.9,-0.3 1.9,-0.3 1.9,-0.3 0,0 1.1,0 1.9,0.3 1,0.3 1.9,-0.2 2.2,-0.4 0.1,0 0.1,0 0.1,0.1 -0.1,0.4 -0.4,1.4 -1.9,1.8 -1.4,0.3 -2.1,1.9 -2.3,2.6 0,0.1 -0.1,0.1 -0.2,0 -0.2,-0.7 -0.9,-2.3 -2.3,-2.6 -1.5,-0.3 -1.8,-1.4 -1.9,-1.8 0.2,-0.1 0.3,-0.1 0.3,-0.1 z m 2.4,4 c 0.2,0 0.5,-0.1 0.7,-0.2 0.1,0.2 0.2,0.5 0.3,0.7 -0.3,0.2 -0.6,0.3 -1,0.3 -1.1,0 -1.9,-0.9 -1.9,-1.9 0,-0.3 0.1,-0.5 0.2,-0.7 0.2,0.1 0.4,0.2 0.7,0.3 -0.1,0.1 -0.1,0.3 -0.1,0.4 -0.1,0.6 0.5,1.1 1.1,1.1 z m -0.5,-1.2 c 0,-0.1 0,-0.1 0,-0.2 0.3,0.1 0.6,0.4 0.8,0.6 -0.1,0.1 -0.2,0.1 -0.3,0.1 -0.3,0 -0.5,-0.2 -0.5,-0.5 z m 0.5,2.6 c 0.4,0 0.9,-0.1 1.3,-0.4 0.1,0.1 0.3,0.5 0.4,0.5 0.2,0 0.3,-0.4 0.4,-0.5 0.4,0.2 0.9,0.4 1.3,0.4 0.7,0 1.3,-0.3 1.8,-0.7 0,0 0,0 0,0.1 0.2,0.8 0.3,1.8 0.2,2.2 0,0.4 -0.2,0.8 -0.3,1.2 -0.2,0.5 -0.3,0.9 -0.3,0.9 0,0 0,0.1 -0.1,0.3 -0.1,0.4 -0.4,1.1 -0.8,1.8 -0.8,-0.5 -1.6,-0.7 -2.6,-0.7 -0.9,0 -1.7,0.2 -2.4,0.6 -0.3,-0.7 -0.6,-1.3 -0.7,-1.6 -0.1,-0.2 -0.1,-0.3 -0.1,-0.3 0,0 -0.2,-0.4 -0.4,-1 -0.1,-0.3 -0.2,-0.7 -0.2,-1.1 0,-0.3 -0.1,-1.3 0.2,-2.2 0,-0.1 0.1,-0.2 0.1,-0.3 0.7,0.4 1.5,0.8 2.2,0.8 z m 3.5,-1.4 c 0.7,0 1.2,-0.5 1.2,-1.2 0,-0.2 0,-0.3 -0.1,-0.4 0.2,-0.1 0.5,-0.2 0.7,-0.3 0.1,0.2 0.2,0.5 0.2,0.7 0,1.1 -0.9,1.9 -1.9,1.9 -0.4,0 -0.7,-0.1 -1,-0.3 0.1,-0.2 0.2,-0.4 0.3,-0.7 0.1,0.2 0.4,0.3 0.6,0.3 z M 44.5,53 c 0.2,-0.3 0.5,-0.5 0.8,-0.6 0,0.1 0,0.1 0,0.2 0,0.3 -0.2,0.5 -0.5,0.5 -0.1,0 -0.2,0 -0.3,-0.1 z M 32.9,50.2 c 0.3,0 0.5,0.1 0.7,0.2 0.7,-0.4 1.5,-0.6 2.6,-0.6 0.6,0 1.2,0.1 1.9,0.2 h 0.1 v 0 c 0,0.1 0.1,0.3 0.2,0.5 l 0.1,0.1 -0.2,-0.1 c -0.1,0 -0.1,0 -0.2,0 -0.6,-0.1 -1.2,-0.2 -1.8,-0.2 -0.7,0 -1.6,0.1 -2.2,0.5 0.1,0.2 0.2,0.4 0.2,0.7 0,0.7 -0.6,1.3 -1.3,1.3 0,1.2 0.8,2.8 2.3,4.6 0.8,-0.8 1.7,-1.7 2.7,-2.4 0.1,-1.2 0.4,-2.5 0.7,-3.7 v -0.1 l 0.1,0.1 c 0.1,0.1 0.2,0.2 0.3,0.3 0,0 0,0 0.1,0.1 v 0 0.1 c -0.2,0.8 -0.4,1.5 -0.5,2.3 v 0.1 0 c -0.1,0.6 -0.2,1.4 -0.2,2.2 0,0.6 -0.1,1.1 -0.1,1.5 0,0.6 0,1.2 0.1,2 V 60 H 38.4 C 38.2,59.9 38.1,59.9 38,59.9 h -0.1 v -0.1 c 0,-0.5 -0.1,-1.2 -0.1,-1.9 0,-0.7 0,-1.4 0.1,-2.1 -0.8,0.7 -1.6,1.4 -2.2,2.1 0.5,0.6 1.2,1.2 2,1.9 l 0.1,0.1 H 37.7 C 37.5,60 37.2,60 37,59.9 v 0 c -0.6,-0.6 -1.1,-1 -1.6,-1.5 -0.1,0.1 -0.2,0.2 -0.2,0.3 l -0.1,0.1 v 0 c -0.1,0 -0.2,0.1 -0.4,0.2 v 0 0 c 0,0 -0.1,-0.1 -0.1,-0.1 0,0 -0.1,0 -0.1,-0.1 h -0.1 v -0.1 c 0.2,-0.3 0.4,-0.5 0.6,-0.7 -1.7,-1.9 -2.5,-3.7 -2.5,-5.1 -0.4,-0.2 -0.7,-0.6 -0.7,-1.1 -0.2,-1 0.4,-1.6 1.1,-1.6 z m 14.2,15.5 c -0.7,2 -1.7,3.4 -2.8,4 -0.1,0.6 -0.6,1.1 -1.2,1.1 -0.6,0 -1.1,-0.5 -1.2,-1.1 -1.1,-0.6 -2.1,-1.9 -2.8,-3.9 v -0.1 l 0.6,-0.2 v 0.1 c 0.6,1.7 1.4,2.9 2.3,3.5 0.2,-0.5 0.6,-0.9 1.2,-0.9 0.6,0 1,0.4 1.2,0.8 0.9,-0.6 1.7,-1.8 2.3,-3.4 v -0.1 h 0.1 c 0,0.1 0.1,0.1 0.3,0.2 z M 42,65.6 c 0,-0.4 0.1,-1.5 0.3,-1.9 0.2,-0.1 0.5,-0.2 0.8,-0.2 0.3,0 0.6,0.1 0.9,0.3 0.1,0.4 0.3,1.4 0.3,1.8 0,0.4 -1,0.7 -1.1,0.8 C 42.9,66.3 42,66.1 42,65.6 Z m 12.8,-4 c -0.1,0.1 -0.2,0.2 -0.3,0.2 0,0 0,0 0,0 -0.1,0 -0.2,0.1 -0.4,0.1 H 54 c -0.2,0 -0.4,0 -0.5,-0.1 -0.1,0 -0.1,-0.1 -0.2,-0.1 0,0 0,0 0,0 0,0 0,0 0,0 -0.3,0 -1,0.2 -1.2,0.3 0.1,0 1,0.1 1.6,0.6 0.3,0.2 0.9,0.3 1.1,0.3 0,0.1 -1,0.8 -2.9,0.4 l -0.5,-0.1 c -0.9,-0.2 -1.7,-0.3 -2.6,-0.3 0.1,0 0.2,0.1 0.2,0.1 0.2,0.1 0.5,0.2 0.7,0.3 0,0 0.1,0 0.1,0.1 0,0 0.1,0 0.1,0 0.1,0 0.2,0 0.2,0.1 0.1,0 0.2,0.1 0.3,0.1 0.1,0.1 0.3,0.2 0.3,0.3 0,0.1 0.1,0.1 0.1,0.2 0,0 0,0 0,0 0,0.2 0,0.3 -0.1,0.5 -0.3,0.4 -0.7,0.4 -1.1,0 0,0 -0.1,-0.1 -0.1,-0.1 -0.1,-0.1 -0.2,-0.2 -0.3,-0.4 0,0 0,-0.1 0,-0.1 0,0 0,0 -0.1,0 -0.2,-0.1 -0.3,-0.3 -0.5,-0.3 -0.3,-0.1 -0.7,-0.2 -1,-0.3 -0.1,0 -0.2,0 -0.3,0 0.3,0.2 0.6,0.4 0.7,0.6 0,0 0,0 0,0.1 0.2,0.3 0.2,0.6 0.3,0.9 0.3,0.6 0.4,0.7 0.7,0.9 -0.3,0.1 -1.8,0.1 -2.5,-1 0,0 -0.1,-0.1 -0.1,-0.2 -0.2,-0.4 -0.3,-0.8 -0.4,-1.1 -0.1,-0.3 0.1,-0.6 -0.1,-0.7 -0.2,-0.1 -0.3,0 -0.3,0 0,0 0,0 0,0 0,0 0,0 0,0 0,0 0,0 0,0 0,0 0,0 0,0 v 0 c 0,0 0,0 0,0 v 0 C 45.5,63 45.5,63 45.5,63 v 0.1 c 0,0.1 -0.1,0.1 -0.1,0.1 0,0 0,0.1 0,0.1 0,0 0,0.1 -0.1,0.1 0,0 0,0 -0.1,0 -0.1,0 -0.1,0 -0.2,0 0,0 0,0 -0.1,0 0,0 -0.1,0 -0.1,0.1 -0.1,0 -0.2,0.1 -0.3,0.1 -0.1,0 -0.2,-0.1 -0.2,-0.2 0,-0.1 0,-0.1 0,-0.2 v 0 c -0.1,0 -0.1,0 -0.2,0 -0.1,0 -0.1,0 -0.2,-0.1 0,-0.1 0,-0.2 0,-0.2 0,-0.1 0,-0.1 0,-0.1 -0.1,0.1 -0.1,0.1 -0.2,0.1 -0.1,0 -0.1,0 -0.2,0 -0.1,0 -0.1,-0.1 -0.1,-0.2 v -0.1 c 0,0 0,0 0,0 0,0 0,0 0,-0.1 0,0 0,0 0,0 0,0 0,0 -0.1,0 h -0.1 c 0,0 0,0 0,0 -0.1,0 -0.3,-0.1 -0.4,-0.1 0,0 0,0 -0.1,0 0,0 0,0 0,0 -0.1,0 -0.3,0.1 -0.4,0.1 0,0 0,0 0,0 h -0.1 c 0,0 -0.1,0 -0.1,0 0,0 0,0 0,-0.1 v 0 c 0,0 0,0 0,-0.1 0,0 0,0 0,0 0,0 0.1,-0.1 0.1,-0.1 0,0 0,0 0,-0.1 0,0 0,0 0,0 -0.1,0 -0.1,0 -0.2,0 0,0 0,0.1 0,0.1 0,0 0,0 -0.1,0 0,0 0,0.1 0,0.1 v 0.1 c 0,0 0,0 0,0 v 0 c 0,0.1 0,0.2 -0.1,0.2 -0.1,0.1 -0.1,0.1 -0.2,0 0,0 -0.1,0 -0.1,-0.1 0,0 -0.1,0 -0.1,-0.1 0,0 0,0 0,0 0,0 0,0 0,0 0,0 0,0 0,0 0,0 0,0 0,0 0,0 0,0 0,0 0,0 0,0 0,0 0,0 0,0 0,0 0,0 0,0 0,0 v 0 c 0,0 0,0 0,0 0,0 0,0.1 0.1,0.1 0,0.1 0,0.1 0,0.2 -0.1,0.1 -0.1,0.1 -0.2,0.1 0,0 -0.1,0 -0.1,0 0,0 -0.1,0 -0.1,0 0,0.1 0.1,0.1 0,0.2 0,0.1 -0.1,0.1 -0.2,0.1 -0.1,0 -0.1,0 -0.2,0 0,0 0,0 -0.1,0 0,0 -0.1,0 -0.1,0 0,0 -0.1,-0.1 -0.1,-0.1 0,0 -0.1,0 -0.2,0 0,0 -0.1,0 -0.1,-0.1 0,0 -0.1,-0.1 -0.1,-0.1 v 0 c 0,0 0,0 0,0 0,0 0,0 0,0 0,0 0,-0.1 0,-0.1 v 0 c -0.2,-0.2 -0.5,0.5 -0.5,0.5 -0.9,1.9 -3.1,2.3 -3.1,2.2 0,0 0.5,-0.2 0.7,-0.9 0.1,-0.4 0.1,-0.5 0.3,-0.9 0,-0.1 0.1,-0.1 0.1,-0.2 0.1,-0.2 0.4,-0.3 0.6,-0.5 0,0 0,0 0,0 -0.1,0 -0.2,0 -0.3,0 -0.3,0.1 -0.6,0.1 -1,0.3 -0.2,0.1 -0.3,0.2 -0.5,0.3 0,0 0,0 -0.1,0 0,0 0,0.1 0,0.1 0,0.1 -0.1,0.2 -0.2,0.4 0,0 -0.1,0.1 -0.1,0.1 0,0 0,0 0,0 -0.4,0.4 -0.7,0.4 -1.1,0 0,0 -0.1,-0.1 -0.1,-0.1 -0.1,-0.1 -0.1,-0.3 0,-0.4 0,-0.1 0.1,-0.2 0.2,-0.3 0.1,-0.1 0.2,-0.1 0.3,-0.2 0.1,-0.1 0.2,-0.1 0.3,-0.1 0.1,0 0.1,0 0.2,-0.1 0,0 0.1,0 0.2,0 0,0 0,-0.1 0.1,-0.1 0.1,0 0.2,-0.1 0.3,-0.1 0.1,0 0.2,-0.1 0.3,-0.1 0,0 0.1,0 0.2,-0.1 -0.8,0 -1.6,0.1 -2.5,0.3 -0.1,0 -0.3,0.1 -0.5,0.1 -1,0.2 -2.9,-0.3 -2.9,-0.4 0,-0.1 0.5,-0.1 1,-0.4 0.4,-0.2 0.6,-0.4 0.9,-0.5 0.5,0.4 1.1,0.4 1.2,0.4 -0.2,-0.1 -1.1,-0.2 -1.4,-0.3 0,0 0,0 0,0 0,0 0,0 0,0 0,0 0,0 0,0 0,0 -0.1,0.1 -0.2,0.1 -0.2,0.1 -0.4,0.1 -0.6,0.1 -0.1,0 -0.3,0 -0.4,-0.1 0,0 0,0 0,0 -0.1,0 -0.2,-0.1 -0.3,-0.2 C 31,61.5 31,61.4 31,61.1 c 0.1,-0.4 0.5,-0.6 1,-0.5 0.3,0.1 0.5,0.2 0.6,0.3 0,0 0.1,0.1 0.1,0.1 0,0 0,0 0,0 0.3,0 0.7,0.2 1.1,0.3 0.4,0.2 0.7,0.3 0.9,0.3 -0.1,0 -0.2,-0.1 -0.3,-0.1 -0.1,0 -0.2,-0.1 -0.2,-0.1 -0.1,-0.1 -0.2,-0.1 -0.3,-0.2 -0.6,-0.3 -1.2,-0.6 -1.6,-1 -0.3,-0.4 -0.4,-0.6 -0.5,-1 -0.1,-0.9 -0.5,-1.3 -0.5,-1.4 0.1,-0.1 1.5,0.6 2,1.1 0.3,0.4 0.4,0.7 0.5,1 V 60 c 0.1,0.3 0.4,0.6 0.9,0.9 0.1,0 0.1,0.1 0.2,0.1 -0.1,-0.2 -0.2,-0.3 -0.3,-0.5 0,0 0,-0.1 0,-0.1 0,0 -0.1,-0.1 -0.1,-0.1 0,0 -0.1,-0.1 -0.1,-0.2 -0.1,-0.1 -0.1,-0.2 -0.2,-0.3 -0.1,-0.3 -0.1,-0.6 0,-0.7 0.1,-0.1 0.2,-0.2 0.4,-0.3 0.4,-0.1 0.7,0.1 0.8,0.7 0,0.1 0,0.2 0,0.3 0,0.1 0,0.2 0,0.3 0,0 0,0.1 0,0.1 0,0 0,0 0,0.1 0.2,0.6 0.7,1.1 1.3,1.5 -0.7,-0.6 -1.1,-2 -1,-2 0.1,-0.1 0.7,0.3 1.3,0.6 0.3,0.1 0.6,0.3 0.9,0.5 0.2,0.1 0.4,0.3 0.5,0.4 0.2,0.1 0.3,0.3 0.4,0.4 v 0 c 0.1,0.1 0.2,0.2 0.3,0.3 0.1,0.1 0.1,0.1 0.2,0.2 0.2,0.1 0.5,0 0.5,0 0.1,0 0.2,0 0.3,-0.1 0,0 0,0 0,0 0,0 0,0 0.1,-0.1 0.1,-0.1 0.2,-0.1 0.3,-0.1 0,0 0,-0.1 0,-0.1 0,-0.2 0.1,-0.3 0.3,-0.4 0,0 0.1,0 0.1,-0.1 0,0 0.1,0 0.1,0 0,0 0.1,0 0.1,0 0,0 0.1,0 0.1,0 0,-0.1 0.1,-0.1 0.2,-0.2 0,0 0,0 0,0 0.2,-0.1 0.5,-0.1 0.7,0.1 0.1,0.1 0.1,0.2 0.2,0.3 0,0 0,0.1 0,0.1 0,0.1 0,0.1 0,0.2 0,0.1 0,0.1 0,0.2 0,0 0,0 0,0 0.1,0 0.3,0 0.4,0 0,0 0,0 0,0 0,0 0,0 0,0 0,0 0,0 0,0 0.1,0 0.1,0 0.2,0 0.1,0 0.2,0 0.3,0.1 0,0 0,0 0,0 0.1,0 0.2,-0.1 0.3,-0.1 0.1,0 0.1,0 0.2,0 0,0 0,0 0,0 0,0 0,0 0,0 0,0 0,0 0,0 0,0 0.1,0 0.1,0 0,-0.1 0,-0.2 0,-0.3 0,-0.1 0,-0.2 0.1,-0.3 0,0 0,-0.1 0.1,-0.1 0,0 0,0 0,0 0,0 0.1,-0.1 0.1,-0.1 0.2,-0.1 0.4,-0.1 0.6,0 0,0 0,0 0,0 0.1,0 0.1,0.1 0.2,0.2 0.1,0 0.1,0 0.2,0 0,0 0.1,0 0.1,0 0,0 0.1,0 0.1,0 0,0 0,0 0,0 0.2,0.1 0.3,0.2 0.3,0.4 0,0 0,0 0,0 0,0 0,0 0.1,0 0,0 0,0 0,0 0,0 0.1,0 0.1,0 0,0 0,0 0,0 0,0 0,0 0,0 0,0 0.5,0 0.6,0.1 h 0.5 c 0.1,-0.1 0.1,-0.1 0.2,-0.2 0.1,-0.1 0.3,-0.3 0.4,-0.4 0.2,-0.1 0.3,-0.3 0.5,-0.4 0.3,-0.2 0.7,-0.3 1,-0.4 1,-0.4 1.1,-1 1.2,-1 0.1,0.1 -0.2,1.7 -0.9,2.3 0.5,-0.4 1,-0.9 1.3,-1.5 0,0 0,0 0,-0.1 0,0 0,-0.1 0,-0.1 0,-0.1 0,-0.2 0,-0.3 0,-0.1 0,-0.2 0,-0.3 0.2,-0.5 0.4,-0.8 0.8,-0.7 0.2,0.1 0.3,0.2 0.4,0.3 0.1,0.2 0.1,0.4 0,0.7 0,0.1 -0.1,0.2 -0.2,0.3 -0.1,0.1 -0.1,0.1 -0.2,0.2 0,0 -0.1,0.1 -0.1,0.1 0,0 0,0.1 0,0.1 -0.1,0.2 -0.2,0.3 -0.4,0.5 0.1,-0.1 0.1,-0.1 0.2,-0.2 0.5,-0.4 0.8,-0.7 0.9,-1 0.1,-0.3 0.2,-0.6 0.5,-1 0.5,-0.5 0.6,-0.7 1.1,-1 0.1,-0.1 0.8,-0.2 0.9,-0.2 0.1,0.1 -0.5,0.3 -0.7,1.3 -0.1,0.3 -0.2,0.8 -0.5,1.2 -0.4,0.5 -0.8,0.6 -1.3,0.9 l -0.1,0.1 c -0.1,0.1 -0.2,0.1 -0.4,0.2 -0.2,0.1 -0.3,0.2 -0.4,0.2 0.3,-0.1 0.6,-0.2 1,-0.3 0.3,-0.2 0.7,-0.3 1.1,-0.3 0,0 0,0 0,0 0,0 0,-0.1 0.1,-0.1 0.1,-0.1 0.3,-0.2 0.6,-0.3 0.5,-0.2 0.9,0 1,0.5 0.1,0.3 0,0.5 -0.1,0.6 z"
   id="path214" />
		<polygon
   class="st1"
   points=""
   id="polygon216" />
		<path
   class="st1"
   d="m 72.3,41.5 c 1.5,-0.7 4,-2.4 5,-3.6 -1.4,-0.5 -4.2,-0.8 -5.8,-0.8 3.3,-2.3 3.4,-7.1 2.5,-10.6 -0.8,2.8 -2.8,5.1 -4.1,6.5 0.1,1.4 -0.3,3.8 -1.1,5.2 1.1,0.4 2.4,1 3.3,1.7 -0.6,0.8 -1.9,1.9 -2.7,2.6 0.7,0.7 1.8,2 2.4,2.8 -0.8,0.6 -2.4,1.2 -3.3,1.5 0.4,0.9 1,2.4 1.2,3.5 -1,0.2 -2.3,0.3 -3.7,0.3 0.1,1 -0.1,2.6 -0.3,3.6 -1.3,-0.1 -2.8,-0.6 -3.5,-1 -0.4,1.4 -1.3,2.8 -1.3,2.9 -1.2,-1.4 -2.4,-1.9 -3.5,-1.9 v -0.9 c 1.1,0 2.3,0.4 3.2,1.3 0.4,-0.7 0.8,-2 1,-2.8 0.8,0.4 2.1,0.9 3.2,1.1 0.1,-1 0.2,-2.3 0.1,-3.3 1.1,0.1 2.3,0.1 3.6,-0.1 -0.2,-0.9 -1,-2.4 -1.5,-3.2 1.1,-0.3 2.5,-0.9 3.2,-1.3 -0.6,-0.8 -1.6,-1.9 -2.3,-2.6 0.8,-0.6 2.1,-1.6 2.6,-2.2 -0.9,-0.6 -2.1,-1.2 -3.1,-1.6 1.4,-1.9 1.7,-5.8 1.4,-7.6 v 0 c -1.2,4.1 -4.8,7.1 -7,8.5 -0.1,0.1 -0.2,0.2 -0.3,0.2 v 0 c 0,0 0,0 0,0 0,0 0,0 0,0 -0.1,0.1 -0.5,0.6 -0.3,1.2 0,0.2 0.1,0.3 0.1,0.5 0.2,0.8 0.2,2 -1,3.1 -1,0.9 -2.2,1 -2.9,0.9 v -2.2 c 0,-0.3 -0.2,-0.5 -0.5,-0.5 H 55.4 L 54.7,42 c 0,0 0.7,0 1.5,0 0.8,-0.1 1.7,-0.5 1.7,-0.5 0,0 -0.9,0 -1.3,-0.1 C 56.1,41.5 55,41 54.1,40 53.8,39.6 53.5,39.2 53.3,38.8 52.5,38.1 51.6,37.2 51,35.9 c -0.4,-0.9 -0.6,-2.2 -0.7,-3 -0.3,0.2 -0.6,0.6 -1,1.1 -0.7,0.9 -1,2.2 -1,2.2 l -0.3,1 -0.5,-0.9 c 0,0 -0.7,-1.2 -0.8,-2.7 0,-0.7 0,-1.3 0.1,-1.8 -0.2,0.1 -0.5,0.3 -0.8,0.5 -1.2,0.9 -1.9,1.8 -1.9,1.8 -0.6,0.8 -1,1.5 -1.1,1.8 -0.1,-0.4 -0.5,-1 -1.1,-1.8 0,0 -0.6,-1 -1.9,-1.8 -0.3,-0.2 -0.6,-0.4 -0.8,-0.5 0.1,0.5 0.1,1.2 0.1,1.8 -0.1,1.5 -0.8,2.6 -0.8,2.7 l -0.5,0.8 -0.3,-1 c 0,0 -0.4,-1.3 -1,-2.2 -0.4,-0.5 -0.7,-0.9 -1,-1.1 -0.1,0.8 -0.3,2.2 -0.7,3 -0.6,1.3 -1.4,2.3 -2.3,2.9 -0.2,0.4 -0.5,0.8 -0.8,1.2 -0.9,1 -2,1.5 -2.5,1.6 -0.4,0.1 -1.3,0.1 -1.3,0.1 0,0 0.9,0.4 1.7,0.5 0.8,0.1 1.5,0 1.5,0 l -0.7,0.7 h -1.5 c -0.3,0 -0.5,0.2 -0.5,0.5 v 2.2 c -0.7,0.1 -2,0 -2.9,-0.9 -1.1,-1.1 -1.2,-2.3 -1,-3.1 0.1,-0.1 0.1,-0.3 0.1,-0.5 0.2,-0.6 -0.2,-1.1 -0.3,-1.2 0,0 0,0 0,0 0,0 0,0 0,0 v 0 c -0.1,-0.1 -0.2,-0.2 -0.3,-0.2 -2.2,-1.4 -5.7,-4.4 -7,-8.5 v 0 c -0.3,1.8 0.1,5.6 1.4,7.6 -1,0.4 -2.3,1 -3.1,1.6 0.5,0.6 1.8,1.7 2.6,2.2 -0.7,0.6 -1.8,1.8 -2.3,2.6 0.7,0.4 2.1,1 3.2,1.3 -0.5,0.8 -1.3,2.3 -1.5,3.2 1.2,0.2 2.5,0.2 3.6,0.1 -0.1,1 0,2.4 0.1,3.3 1.1,-0.2 2.4,-0.6 3.2,-1.1 0.2,0.7 0.6,2.1 1,2.8 0.9,-0.9 2.1,-1.3 3.2,-1.3 v 0.9 c -1.1,0 -2.3,0.5 -3.5,1.9 0,-0.1 -0.9,-1.5 -1.3,-2.9 -0.7,0.3 -2.2,0.9 -3.5,1 -0.2,-1 -0.3,-2.6 -0.3,-3.6 -1.4,0 -2.7,-0.1 -3.7,-0.3 0.2,-1.1 0.8,-2.6 1.2,-3.5 -0.9,-0.3 -2.5,-1 -3.3,-1.5 0.5,-0.8 1.7,-2.1 2.4,-2.8 C 15.8,42 14.5,40.8 13.9,40 14.8,39.3 16.1,38.7 17.2,38.3 16.4,36.8 16,34.4 16.1,33.1 14.7,31.7 12.7,29.4 12,26.6 c -1,3.5 -0.8,8.4 2.5,10.6 -1.6,0 -4.4,0.4 -5.8,0.8 1,1.2 3.5,2.8 5,3.6 -1.2,0.4 -3.3,1.6 -4.2,2.4 1.1,0.7 3.6,1.5 4.8,1.8 -0.7,0.6 -2.1,2.2 -2.6,3 1,0.3 3,0.6 4.3,0.6 -0.4,0.9 -0.9,2.4 -1,3.3 0.6,0.1 2.7,0 3.8,-0.3 -0.1,0.9 -0.1,2.4 0.1,3.1 1,-0.1 2.5,-0.6 3.2,-0.8 0.2,0.8 0.9,2.4 1.2,2.8 0.5,-0.1 1,-0.2 1.5,-0.4 1.4,-0.5 2.9,0.1 3.5,1.4 1,2.3 0.6,5 -1.3,4.5 -2.2,0.4 -0.7,3.2 -2,4.1 1.7,1.2 2.2,-1.6 4.4,-1.1 -0.2,1 -0.2,2.9 0,3.7 0.7,-0.5 1.7,-0.9 2.3,-1 -0.2,0.6 -0.3,2 -0.1,2.9 0.4,-0.3 3.3,-1.1 3.3,-1.1 0,0 -1.1,2.2 -0.4,4.4 0.4,0.3 3,-1 3,-1.7 0.1,0.9 -1,2.9 -2.7,3.3 1.8,1.8 3.4,1.7 3.6,1.7 0.3,0 0.5,0 0.7,-0.2 -0.1,0.5 -0.2,1.2 -0.1,1.6 0.1,0 0.2,0 0.3,0 0.5,0 0.9,-0.1 1.2,-0.2 0.1,0.5 0.3,1 0.6,1.4 0.1,0.1 0.1,0.1 0.2,0.2 0.4,0 1.4,-0.5 1.6,-0.8 v 0 c 0,0 0,0 0,0 0,0 0,0 0,0 v 0 c 0.2,0.3 1.2,0.8 1.6,0.8 0.1,-0.1 0.2,-0.1 0.2,-0.2 0.4,-0.4 0.6,-1 0.6,-1.4 0.4,0.2 0.8,0.2 1.2,0.2 0.1,0 0.2,0 0.3,0 0.1,-0.4 0.1,-1.1 -0.1,-1.6 0.2,0.1 0.5,0.2 0.7,0.2 0.2,0 1.8,0.1 3.6,-1.7 -1.7,-0.4 -2.8,-2.4 -2.7,-3.3 0,0.8 2.6,2 3,1.7 0.7,-2.2 -0.4,-4.4 -0.4,-4.4 0,0 2.8,0.7 3.3,1.1 0.2,-0.9 0.1,-2.3 -0.1,-2.9 0.6,0 1.6,0.5 2.3,1 0.2,-0.8 0.2,-2.6 0,-3.7 2.1,-0.5 2.6,2.3 4.4,1.1 -1.2,-0.9 0.3,-3.7 -2,-4.1 -1.9,0.6 -2.3,-2.2 -1.3,-4.5 0.6,-1.3 2.2,-1.9 3.5,-1.4 0.5,0.2 1,0.3 1.5,0.4 0.2,-0.4 1,-2 1.2,-2.8 0.7,0.3 2.2,0.7 3.2,0.8 0.1,-0.7 0.2,-2.2 0.1,-3.1 1,0.2 3.2,0.3 3.8,0.3 -0.1,-1 -0.6,-2.5 -1,-3.3 1.3,-0.1 3.3,-0.3 4.3,-0.6 -0.5,-0.9 -1.9,-2.5 -2.6,-3 1.2,-0.3 3.7,-1.1 4.8,-1.8 -0.7,-0.9 -2.8,-2.1 -4,-2.5 z M 56.1,64 c -0.1,0.2 -0.2,0.3 -0.3,0.5 0,0.1 -0.1,0.1 -0.1,0.2 -0.1,0.1 -0.2,0.2 -0.3,0.4 -0.1,0.1 -0.1,0.1 -0.2,0.2 -0.1,0.2 -0.3,0.3 -0.4,0.5 -0.1,0.1 -0.2,0.2 -0.3,0.3 -0.1,0.1 -0.2,0.2 -0.3,0.3 -0.1,0.1 -0.2,0.2 -0.4,0.4 -0.1,0.1 -0.1,0.1 -0.2,0.2 -0.3,0.3 -0.7,0.6 -1.1,0.8 0,0 0,0 0,0 -0.5,0.4 -1,0.7 -1.6,1 v 0 c -0.2,0.1 -0.4,0.2 -0.6,0.3 -4.5,2.3 -6.7,4.1 -7.4,4.6 0,0 -0.1,0 -0.1,0 C 42.1,73.1 39.9,71.4 35.4,69.1 35.2,69 35,68.9 34.8,68.8 v 0 c -0.6,-0.3 -1.1,-0.6 -1.6,-1 0,0 0,0 0,0 C 32.8,67.5 32.5,67.2 32.1,67 32,66.9 31.9,66.9 31.9,66.8 31.8,66.7 31.6,66.6 31.5,66.4 31.4,66.3 31.3,66.2 31.2,66.1 31.1,66 31,65.9 30.9,65.8 30.7,65.6 30.6,65.5 30.5,65.3 30.4,65.2 30.4,65.2 30.3,65.1 30.2,65 30.1,64.9 30,64.7 30,64.6 29.9,64.6 29.9,64.5 29.8,64.3 29.7,64.2 29.6,64 29,62.7 29.1,61.6 29.1,61.6 v 0 -17.5 c 0,-0.3 0.2,-0.5 0.5,-0.5 H 31.1 43 v 0 0 0 H 54.5 56 c 0.3,0 0.5,0.2 0.5,0.5 v 17.5 0 c 0.1,0 0.2,1.1 -0.4,2.4 z"
   id="path218" />
		<polygon
   class="st1"
   points=""
   id="polygon220" />
		<path
   class="st1"
   d="m 55.5,16 c 0.4,0 0.6,-0.3 0.6,-0.7 0,-0.4 -0.3,-0.7 -0.6,-0.7 -0.4,0 -0.6,0.3 -0.6,0.7 0,0.4 0.3,0.7 0.6,0.7 z"
   id="path222" />
		<path
   class="st1"
   d="m 55.5,19.7 c 0.4,0 0.8,-1.7 0.8,-2.5 0,-0.5 -0.4,-0.8 -0.8,-0.8 -0.4,0 -0.8,0.3 -0.8,0.8 0,0.8 0.4,2.5 0.8,2.5 z"
   id="path224" />
		<polygon
   class="st1"
   points="56.9,12.6 56.9,11.7 55.8,11.9 56,10.8 55.1,10.8 55.2,11.9 54.1,11.7 54.1,12.6 55.2,12.5 55.1,13.6 56,13.6 55.8,12.5 "
   id="polygon226" />
		<path
   class="st1"
   d="m 51.6,21.7 c 0.3,0.1 0.6,0.1 0.9,0.2 0,0 0.1,0 0.1,0 v 0 0 0 0 0 0 0 0 0 c 0,0 0,0 0,0 v 0 h 0.1 v 0 c 0.1,0 0.1,0 0.1,0 H 53 c 0.1,0 0.2,0 0.3,0 0.1,0 0.1,0 0.2,0 0.1,0 0.2,0 0.3,0 0.8,0 1.6,-0.2 2.4,-0.4 0.8,-0.2 1.6,-0.4 2.5,-0.4 h 0.1 c 0,0 0.1,0 0.1,0 v 0 0 H 59 c 0,0 0,0 0,0 v 0 0 0 0 h 0.1 0.1 v 0 0 0 0 c 0,0 0.1,0 0.1,0 0.2,-0.9 0.5,-1.9 0.5,-2.5 0,-1.2 -0.7,-2.5 -3,-2.9 0,1.5 -0.7,5 -1.5,5 h -0.1 c -0.8,0 -1.5,-3.5 -1.5,-5 -2.3,0.4 -3,1.7 -3,2.9 0,0.7 0.3,2 0.6,2.9 0.3,0.1 0.3,0.1 0.3,0.2 z"
   id="path228" />
		<path
   class="st1"
   d="m 63.6,15.4 v 0 c 0,0 -0.6,-1.6 0.4,-2.1 1.1,-0.4 -0.4,-0.2 0.4,-2.4 v 0 c 0.9,-2.6 2.9,-2 2.9,-2 -1.4,-1.1 -2.5,-1 -3.3,-0.4 -0.5,0.4 -1.2,1.2 -1.7,2.8 -0.4,2 0.3,3.9 1.3,4.1 z"
   id="path230" />
		<path
   class="st1"
   d="m 68.8,11.5 c 0.1,3.3 5.6,4.7 5.6,4.7 0,0 -3.2,-2.3 -2.6,-4 0,0 2.1,0.9 4.5,0.5 C 71.2,11.6 72.9,10 71.6,8.7 70.3,7.3 68.3,7.2 67.8,7.1 66.5,7 66.4,7 64.9,7.4 c 3.5,0.1 3.9,1.9 3.9,4.1 z"
   id="path232" />
		<path
   class="st1"
   d="m 68.1,17.7 c 0.7,-2.6 -0.6,-3.8 -0.6,-3.8 -0.4,-0.5 -2.5,-0.4 -3.3,0.1 0,0 2,0 1.7,2.9 -0.3,2.9 -4.3,3.5 -5.4,3.6 l -0.1,0.4 c 1.9,0 6.9,-0.6 7.7,-3.2 z"
   id="path234" />
		<path
   class="st1"
   d="m 47.2,17.6 h -2 c 1,2.8 3.9,3.7 5.8,4 l -0.1,-0.3 c -2,-0.8 -3,-1.6 -3.7,-3.7 z"
   id="path236" />
		<path
   class="st1"
   d="m 30.6,16 c 0.4,0 0.6,-0.3 0.6,-0.7 0,-0.4 -0.3,-0.7 -0.6,-0.7 -0.4,0 -0.6,0.3 -0.6,0.7 -0.1,0.4 0.2,0.7 0.6,0.7 z"
   id="path238" />
		<path
   class="st1"
   d="m 30.6,19.7 c 0.4,0 0.8,-1.7 0.8,-2.5 0,-0.5 -0.4,-0.8 -0.8,-0.8 -0.4,0 -0.8,0.3 -0.8,0.8 0,0.8 0.3,2.5 0.8,2.5 z"
   id="path240" />
		<polygon
   class="st1"
   points="32,12.6 32,11.7 30.9,11.9 31,10.8 30.1,10.8 30.3,11.9 29.2,11.7 29.2,12.6 30.3,12.5 30.1,13.6 31,13.6 30.9,12.5 "
   id="polygon242" />
		<polygon
   class="st1"
   points=""
   id="polygon244" />
		<path
   class="st1"
   d="m 26.6,21.1 v 0 0 0 0 h 0.1 0.1 v 0 0 0 0 c 0,0 0,0 0,0 H 27 v 0 0 c 0.1,0 0.1,0 0.1,0 h 0.1 c 0.9,0.1 1.8,0.2 2.5,0.4 0.7,0.2 1.6,0.4 2.4,0.4 0.1,0 0.2,0 0.3,0 0.1,0 0.1,0 0.2,0 0.1,0 0.2,0 0.3,0 h 0.2 c 0,0 0.1,0 0.1,0 v 0 h 0.1 v 0 c 0,0 0,0 0,0 v 0 0 0 0 0 0 0 0 0 c 0,0 0.1,0 0.1,0 0.3,0 0.6,-0.1 0.9,-0.2 0,-0.1 0,-0.1 0.1,-0.1 0.3,-0.9 0.6,-2.2 0.6,-2.9 0,-1.2 -0.6,-2.5 -3,-2.9 0,1.4 -0.7,5 -1.5,5 h -0.1 c -0.8,0 -1.5,-3.5 -1.5,-5 -2.3,0.4 -3,1.7 -3,2.9 0,0.6 0.2,1.6 0.5,2.5 0.1,-0.1 0.1,-0.1 0.2,-0.1 z"
   id="path246" />
		<path
   class="st1"
   d="m 18.7,8.9 c 0,0 2,-0.6 2.9,2 v 0 c 0.8,2.2 -0.7,2 0.4,2.4 1.1,0.4 0.4,2.1 0.4,2.1 v 0 c 1.1,-0.2 1.8,-2.1 1.2,-4.2 C 23.1,9.6 22.4,8.8 21.9,8.4 21.1,7.9 20.1,7.8 18.7,8.9 Z"
   id="path248" />
		<path
   class="st1"
   d="m 14.2,12.2 c 0.6,1.7 -2.6,4 -2.6,4 0,0 5.6,-1.4 5.6,-4.7 0.1,-2.2 0.4,-4 3.8,-4.1 -1.5,-0.3 -1.6,-0.3 -2.9,-0.3 -0.5,0 -2.5,0.2 -3.8,1.6 -1.2,1.3 0.4,2.9 -4.7,4 2.5,0.4 4.6,-0.5 4.6,-0.5 z"
   id="path250" />
		<path
   class="st1"
   d="M 20.2,16.9 C 19.9,14 21.9,14 21.9,14 c -0.7,-0.5 -2.8,-0.5 -3.3,-0.1 0,0 -1.3,1.1 -0.6,3.8 0.7,2.6 5.8,3.2 7.7,3.2 l -0.1,-0.4 c -1.1,-0.1 -5.1,-0.7 -5.4,-3.6 z"
   id="path252" />
		<path
   class="st1"
   d="m 40.9,17.6 h -2 c -0.7,2.1 -1.7,2.9 -3.7,3.7 l -0.1,0.3 c 2,-0.3 4.8,-1.2 5.8,-4 z"
   id="path254" />
		<path
   class="st1"
   d="m 45.6,29.9 c -0.6,0.9 -1.1,1.9 -1.5,2.9 0.3,-0.4 0.8,-0.8 1.3,-1.2 0.9,-0.6 1.7,-1 1.7,-1 l 0.8,-0.3 -0.2,0.8 c 0,0 -0.3,1.3 -0.2,2.4 0,0.5 0.2,1 0.3,1.3 0.2,-0.5 0.5,-1 0.8,-1.5 1,-1.3 1.8,-1.8 1.8,-1.8 L 51,31.2 v 0.7 c 0,0 0.2,2.3 0.7,3.5 0.9,2 2.6,3.1 3.6,3.6 -0.1,-0.1 -0.3,-0.3 -0.5,-0.5 -0.5,-0.5 -1,-1.4 -1.3,-3.3 -0.2,-1.6 0.4,-3.2 0.6,-3.7 0.1,0.4 0.3,0.8 0.5,0.9 0,0 0,-0.4 0.1,-0.8 0.2,-1.1 1.4,-2.8 3,-3.8 0.3,-0.2 0.6,-0.4 0.8,-0.5 0.3,-0.1 0.5,-0.3 0.7,-0.5 -0.3,0 -0.7,0.1 -1,0.1 h -0.1 c -0.2,0 -0.5,0 -0.9,0 -0.8,0 -1.7,-0.1 -2.4,-0.7 -0.7,-0.6 -1,-1.2 -1.1,-1.6 -0.3,0 -0.7,0 -1.2,0 -0.6,0 -1.1,-0.2 -1.4,-0.2 -0.8,0.5 -1.6,0.7 -2.6,0.8 -0.1,0 -0.3,0 -0.4,0 0.3,0.3 0.7,0.5 1,0.7 0,0 0,0 0.1,0 L 49,26 c 0.1,-0.1 -1.3,0.7 -3.4,3.9 z"
   id="path256" />
		<path
   class="st1"
   d="m 58.7,24.3 c -0.4,0 -0.7,0 -1.1,0 0,0.2 0,0.4 0,0.6 0.1,0.3 0.2,0.5 0.4,0.7 0.3,-0.2 0.6,-0.7 0.7,-1.3 z"
   id="path258" />
		<path
   class="st1"
   d="m 59.5,22 v 0 0 c -0.1,0 -0.1,0 0,0 v 0 0 0 h -0.1 v 0 c 0,0 0,0 -0.1,0 v 0 0 0 0 0 c 0,0 0,0 0,0 v 0 0 0 c 0,0 0,0 0,0 -0.1,0 -0.1,0 -0.2,0 -0.8,0 -1.6,0.2 -2.4,0.4 -0.8,0.2 -1.7,0.4 -2.5,0.4 -0.2,0 -0.3,0 -0.5,0 -0.1,0 -0.2,0 -0.3,0 -0.1,0 -0.1,0 -0.2,0 -0.1,0 -0.1,0 -0.2,0 0,0 0,0 0,0 0,0 0,0 0,0 0,0 0,0 -0.1,0 0,0 0,0 0,0 0,0 0,0 0,0 0,0 0,0 -0.1,0 0,0 0,0 0,0 0,0 0,0 0,0 -1.8,-0.2 -3,-0.8 -3.6,-1.1 0.1,0.2 0.3,0.4 0.6,0.7 0.1,0.1 0.2,0.2 0.3,0.3 0.2,0.2 0.5,0.4 0.8,0.6 0.4,0.2 2.1,0.9 4.3,0.6 2.5,-0.4 3,-0.3 3.6,-0.3 H 59 c 0.9,0.1 2.2,0.6 2.7,0.9 0.2,-0.5 0.5,-1 0.6,-1.5 C 62.2,22.9 62,22.7 61.6,22.5 61.5,22.4 61.4,22.4 61.2,22.3 61,22.2 60.7,22.1 60.3,22.1 59.9,22 59.7,22 59.5,22 Z"
   id="path260" />
		<path
   class="st1"
   d="m 66.5,30.2 v 0 c 0,0 0,0 0,0 -0.1,0 -1,0.5 -2.9,-0.7 -1.9,-1.2 -3.3,-1.7 -4.1,-1.9 -0.2,0.1 -0.3,0.2 -0.5,0.3 -0.2,0.1 -0.5,0.3 -0.8,0.5 -0.1,0.1 -0.2,0.1 -0.3,0.2 0,0 0.1,0 0.2,0 1.8,0.2 3.2,1.2 3.3,1.6 0,0 0.1,0 0.1,0 0.2,-0.6 -0.1,-1.1 -0.1,-1.1 0,0 0.8,0.5 2.4,1.4 1.7,1.1 2.4,0.1 2.7,-0.3 z"
   id="path262" />
		<path
   class="st1"
   d="m 57,25.3 c -0.1,-0.1 -0.2,-0.3 -0.3,-0.4 -0.1,-0.2 -0.1,-0.3 -0.1,-0.4 -0.4,0 -0.9,0.1 -1.5,0.2 -0.1,0 -0.3,0 -0.4,0 0.3,0.6 0.8,1.2 1.8,1.4 0.1,0 0.1,0 0.2,0 0.1,0 0.1,0 0.2,0 0.4,0.1 0.9,0.1 1.2,0.1 0.7,0 1.5,-0.1 2.3,-0.3 0.2,-0.2 0.3,-0.5 0.5,-0.7 0,0 -0.1,-0.1 -0.2,-0.1 -0.2,-0.1 -0.7,-0.4 -1,-0.5 -0.1,0.3 -0.3,0.6 -0.5,0.8 -0.3,0.2 -0.7,0.3 -1.1,0.3 -0.4,0 -0.8,-0.1 -1,-0.3 C 57,25.4 57,25.3 57,25.3 Z"
   id="path264" />
		<path
   class="st1"
   d="m 62.3,23.8 c -0.6,1.6 -1.6,2.8 -2.3,3.4 0,0 0,0 0,0 4.5,-1.2 5.3,1.1 5.3,1.2 0,0.1 0,0.1 0.1,0 0.1,-0.1 1.6,-1.7 0.5,-3.2 C 65,24 63,23.8 62.3,23.8 Z m 0,1.2 v 0 c 0.2,-0.2 0.3,-0.6 0.3,-0.6 0.3,0 0.9,0.1 0.9,0.5 -0.4,-0.1 -0.9,-0.1 -1.2,0.1 z"
   id="path266" />
		<path
   class="st1"
   d="m 28.5,24.9 c 0,-0.2 0,-0.4 0,-0.6 -0.4,0 -0.8,0 -1.1,0 0.1,0.6 0.4,1.1 0.7,1.3 0.2,-0.2 0.3,-0.4 0.4,-0.7 z"
   id="path268" />
		<path
   class="st1"
   d="m 33.6,22.7 c 0,0 0,0 0,0 -0.1,0 -0.1,0 0,0 -0.1,0 -0.1,0 -0.1,0 0,0 0,0 0,0 0,0 0,0 -0.1,0 0,0 0,0 0,0 0,0 0,0 0,0 -0.1,0 -0.1,0 -0.2,0 -0.1,0 -0.1,0 -0.2,0 -0.1,0 -0.2,0 -0.3,0 -0.2,0 -0.3,0 -0.5,0 -0.9,0 -1.7,-0.2 -2.5,-0.4 C 28.8,22.2 28,22 27.2,22 c -0.1,0 -0.1,0 -0.2,0 0,0 0,0 0,0 v 0 0 0 c 0,0 0,0 0,0 v 0 0 0 0 0 c 0,0 0,0 -0.1,0 v 0 0 0 0 0 c 0,0 0,0 0,0 v 0 0 0 c -0.2,0 -0.4,0 -0.5,0 -0.4,0 -0.7,0.1 -0.9,0.2 -0.1,0.1 -0.3,0.1 -0.4,0.2 -0.3,0.2 -0.5,0.3 -0.7,0.5 0.1,0.5 0.4,1.1 0.6,1.5 0.5,-0.3 1.8,-0.9 2.7,-0.9 h 0.2 c 0.6,0 1.1,-0.1 3.6,0.3 2.2,0.3 3.8,-0.4 4.3,-0.6 0.3,-0.2 0.6,-0.4 0.8,-0.6 0.1,-0.1 0.2,-0.2 0.3,-0.3 0.2,-0.3 0.4,-0.5 0.6,-0.7 -0.9,0.3 -2.1,0.9 -3.9,1.1 0,0 0,0 0,0 z"
   id="path270" />
		<path
   class="st1"
   d="m 19.6,30.2 v 0 c 0.3,0.3 1,1.4 2.6,0.5 1.6,-0.9 2.4,-1.4 2.4,-1.4 0,0 -0.3,0.5 -0.1,1.1 0,0 0,0 0.1,0 0.2,-0.4 1.6,-1.5 3.3,-1.6 0.1,0 0.1,0 0.2,0 C 28,28.7 27.9,28.7 27.8,28.6 27.5,28.4 27.2,28.2 27,28.1 26.8,28 26.7,27.9 26.5,27.8 c -0.8,0.1 -2.2,0.7 -4.1,1.9 -1.8,1 -2.7,0.5 -2.8,0.5 0,0 0,0 0,0 z"
   id="path272" />
		<path
   class="st1"
   d="m 26.4,24.6 c -0.2,0.1 -0.8,0.4 -1,0.5 -0.1,0 -0.1,0.1 -0.2,0.1 0.2,0.3 0.3,0.5 0.5,0.7 0.8,0.2 1.6,0.3 2.3,0.3 0.4,0 0.8,0 1.2,-0.1 0.1,0 0.1,0 0.2,0 0.1,0 0.1,0 0.2,0 1,-0.2 1.6,-0.9 1.8,-1.4 -0.1,0 -0.3,0 -0.4,0 -0.6,-0.1 -1.1,-0.2 -1.5,-0.2 0,0.1 -0.1,0.3 -0.1,0.4 -0.1,0.2 -0.2,0.3 -0.3,0.4 0,0 -0.1,0.1 -0.1,0.1 -0.3,0.2 -0.6,0.3 -1,0.3 -0.4,0 -0.8,-0.1 -1.1,-0.3 -0.3,-0.2 -0.4,-0.5 -0.5,-0.8 z"
   id="path274" />
		<path
   class="st1"
   d="m 20.1,25.2 c -1.1,1.5 0.4,3.1 0.5,3.2 0.1,0.1 0.1,0 0.1,0 0,-0.1 0.8,-2.4 5.3,-1.2 0,0 0,0 0,0 -0.7,-0.6 -1.7,-1.8 -2.3,-3.4 -0.6,0 -2.7,0.2 -3.6,1.4 z M 23.8,25 c -0.3,-0.2 -0.8,-0.2 -1.2,-0.1 0,-0.4 0.6,-0.5 0.9,-0.5 0,0 0.1,0.4 0.3,0.6 z"
   id="path276" />
		<path
   class="st1"
   d="m 37.9,25.2 c -0.1,0 -0.3,0 -0.4,0 -1,0 -1.8,-0.3 -2.6,-0.8 -0.3,0.1 -0.9,0.2 -1.4,0.2 -0.5,0 -1,0 -1.2,0 -0.1,0.4 -0.4,1.1 -1.1,1.6 -0.7,0.6 -1.6,0.7 -2.4,0.7 -0.4,0 -0.7,0 -0.9,0 h -0.1 c -0.2,0 -0.6,-0.1 -1,-0.1 0.3,0.2 0.5,0.3 0.7,0.5 0.2,0.1 0.5,0.3 0.8,0.5 1.6,1.1 2.8,2.7 3,3.8 0.1,0.4 0.1,0.8 0.1,0.8 0.2,-0.1 0.4,-0.5 0.5,-0.9 0.2,0.5 0.9,2.1 0.6,3.7 -0.3,1.9 -0.8,2.8 -1.3,3.3 -0.2,0.2 -0.4,0.4 -0.5,0.5 1,-0.5 2.7,-1.6 3.6,-3.6 C 34.8,34.3 35,32 35,32 v -0.7 l 0.6,0.3 c 0,0 0.9,0.5 1.8,1.8 0.3,0.5 0.6,1 0.8,1.5 0.1,-0.4 0.2,-0.8 0.3,-1.3 0.1,-1.2 -0.2,-2.4 -0.2,-2.4 l -0.2,-0.8 0.8,0.3 c 0,0 0.8,0.3 1.7,1 0.6,0.4 1,0.8 1.3,1.2 -0.4,-1 -0.8,-2 -1.5,-2.9 C 38.3,26.8 37,26.1 37,26.1 L 36.8,26 c 0,0 0,0 0.1,0 0.3,-0.3 0.7,-0.6 1,-0.8 z"
   id="path278" />
	</g>
</g>
</svg>
